<?xml version="1.0"?>
<svg width="600" height="649.25" xmlns="http://www.w3.org/2000/svg" xmlns:svg="http://www.w3.org/2000/svg" enable-background="new 0 0 600 649.25" version="1.1" xml:space="preserve">
 <style type="text/css">.st0{fill:none;}
	.st1{fill:#083042;}
	.st2{fill:#3DDB85;}
	.st3{fill:#3DDC84;}
	.st4{fill:#4285F4;}
	.st5{fill:#D6F0FF;}
	.st6{fill:#041619;}
	.st7{fill:#37BF6E;}
	.st8{fill:#3870B2;}
	.st9{opacity:0.1;}</style>
 <g class="layer">
  <title>Layer 1</title>
  <g id="svg_1">
   <rect class="st0" height="649.25" id="svg_2" width="599" x="0" y="0"/>
   <g id="svg_3">
    <path class="st1" d="m186.59,392.02c-1.18,-1.99 -1.96,-4.23 -2.3,-6.57c0.33,2.34 1.11,4.58 2.3,6.57z" id="svg_4"/>
    <path class="st1" d="m186.4,261.89l0,0c-1.11,2.65 -1.85,5.5 -2.14,8.47c0.29,-2.97 1.03,-5.82 2.14,-8.47z" id="svg_5"/>
    <path class="st1" d="m189.45,395.67c1.1,1.1 2.37,2.05 3.76,2.85l94.96,53.72l-94.96,-53.72c-1.39,-0.8 -2.66,-1.74 -3.76,-2.85z" id="svg_6"/>
    <path class="st1" d="m302.77,520.16c-0.25,0 -0.5,0.03 -0.75,0.03c-6.95,0.06 -13.91,-1.69 -20.15,-5.22l-141.67,-80.15c-8.31,-4.69 -13.48,-13.48 -13.56,-23.03l-0.01,-162.97c-0.07,-6.96 1.31,-13.66 4.12,-19.57l-110.76,-62.16c-4.67,9.76 -6.94,20.85 -6.82,32.35l0,269.02c0.15,15.76 8.68,30.27 22.41,38.01l233.84,132.3c10.32,5.84 21.82,8.72 33.27,8.62l0,-0.2c0.26,-16.77 0.18,-84.45 0.1,-127.03z" id="svg_7"/>
    <path class="st2" d="m414.14,258.92l0,0c-0.26,-0.45 -0.54,-0.88 -0.82,-1.31c-0.65,-0.95 -1.35,-1.87 -2.12,-2.75c0.77,0.88 1.46,1.8 2.12,2.75c0.28,0.43 0.56,0.86 0.82,1.31z" id="svg_8"/>
    <path class="st2" d="m187.7,259.13c0.58,-1.03 1.23,-2.01 1.95,-2.94c-0.72,0.93 -1.36,1.91 -1.95,2.94z" id="svg_9"/>
    <path class="st2" d="m297.32,193.76c0.64,-0.06 1.28,-0.08 1.92,-0.1c-0.64,0.01 -1.28,0.04 -1.92,0.1z" id="svg_10"/>
    <path class="st3" d="m130.75,229.21c3.04,-6.35 7.74,-11.77 14.16,-15.58l133.36,-78.8c12.41,-7.34 27.78,-7.48 40.33,-0.39l134.82,76.28c6.02,3.4 11.28,8.22 15.12,13.91c0.01,0.01 0.03,0.04 0.04,0.07l108.97,-65.2c-6.35,-9.39 -15.04,-17.31 -24.96,-22.93l-222.56,-125.91c-20.71,-11.72 -46.08,-11.48 -66.55,0.64l-220.15,130.08c-10.58,6.26 -18.35,15.22 -23.37,25.71l110.76,62.16c0.01,0 0.01,-0.01 0.01,-0.03z" id="svg_11"/>
    <path class="st2" d="m291.79,194.81c0.28,-0.08 0.57,-0.17 0.85,-0.25c-0.28,0.08 -0.57,0.17 -0.85,0.25z" id="svg_12"/>
    <path class="st2" d="m186.87,260.69c0.26,-0.53 0.53,-1.06 0.82,-1.56c-0.29,0.5 -0.56,1.03 -0.82,1.56c-0.18,0.39 -0.31,0.81 -0.47,1.2l0,0c0.17,-0.39 0.29,-0.81 0.47,-1.2z" id="svg_13"/>
    <path class="st4" d="m577.56,159.49l-108.97,65.2c4.18,6.15 6.73,13.32 6.8,20.81l0,155.09c0.13,14.44 -7.44,27.84 -19.83,35.18l-133.37,78.82c-5.99,3.56 -12.69,5.38 -19.41,5.57c0.08,42.57 0.17,110.26 -0.1,127.03l0,0.2c11.53,-0.1 23.03,-3.15 33.3,-9.23l220.13,-130.09c20.49,-12.11 32.95,-34.23 32.74,-58.07l0,-256c-0.13,-12.4 -4.35,-24.29 -11.28,-34.48z" id="svg_14"/>
    <path class="st4" d="m416.63,383.95c-0.08,0.28 -0.18,0.56 -0.28,0.84c0.1,-0.28 0.19,-0.56 0.28,-0.84z" id="svg_15"/>
    <path class="st4" d="m415.21,260.83c-0.33,-0.66 -0.7,-1.28 -1.07,-1.91l0,0c0.38,0.63 0.74,1.26 1.07,1.91z" id="svg_16"/>
    <path class="st4" d="m315.21,451.98l89.39,-52.83c0.52,-0.31 1.03,-0.63 1.52,-0.98c-0.49,0.35 -1,0.67 -1.52,0.98l-89.39,52.83z" id="svg_17"/>
    <path class="st4" d="m415.42,387.11c-0.32,0.7 -0.65,1.38 -1.03,2.05c0.38,-0.67 0.71,-1.35 1.03,-2.05z" id="svg_18"/>
    <path class="st4" d="m408.92,395.98c1.32,-1.19 2.51,-2.48 3.57,-3.89c-1.06,1.41 -2.24,2.71 -3.57,3.89z" id="svg_19"/>
    <path class="st4" d="m414.39,389.16c-0.57,1.02 -1.21,1.99 -1.91,2.93c0.7,-0.93 1.34,-1.91 1.91,-2.93z" id="svg_20"/>
    <path class="st5" d="m186.4,261.89c-1.11,2.65 -1.85,5.5 -2.14,8.47c-0.11,1.14 -0.15,2.3 -0.14,3.47l0,109.24c0,0.8 0.07,1.59 0.18,2.37c0.33,2.34 1.11,4.58 2.3,6.57c0.78,1.34 1.74,2.57 2.85,3.65c1.1,1.1 2.37,2.05 3.76,2.85l94.96,53.72c4.19,2.37 8.86,3.54 13.51,3.5c0.33,0 0.67,-0.03 1,-0.04c4.35,-0.2 8.65,-1.42 12.52,-3.71l89.39,-52.83c0.52,-0.31 1.03,-0.63 1.52,-0.98c0.99,-0.67 1.92,-1.41 2.8,-2.2c1.32,-1.19 2.51,-2.48 3.57,-3.89c0.7,-0.93 1.34,-1.91 1.91,-2.93c0.38,-0.67 0.71,-1.35 1.03,-2.05c0.35,-0.75 0.67,-1.53 0.93,-2.32c0.1,-0.28 0.19,-0.56 0.28,-0.84c0.85,-2.66 1.28,-5.5 1.25,-8.38l0,-103.95c-0.01,-1.9 -0.26,-3.75 -0.72,-5.55c-0.31,-1.2 -0.7,-2.39 -1.17,-3.53c-0.25,-0.57 -0.5,-1.14 -0.78,-1.7c-0.33,-0.66 -0.7,-1.28 -1.07,-1.91c-0.26,-0.45 -0.54,-0.88 -0.82,-1.31c-0.65,-0.95 -1.35,-1.87 -2.12,-2.75c-2.27,-2.61 -5,-4.85 -8.02,-6.57l-90.38,-51.13c-1.57,-0.89 -3.22,-1.62 -4.9,-2.16c-2.24,-0.74 -4.57,-1.17 -6.89,-1.3c-0.58,-0.03 -1.17,-0.04 -1.75,-0.04c-0.64,0.01 -1.28,0.04 -1.92,0.1c-1.57,0.13 -3.13,0.39 -4.68,0.8c-0.28,0.08 -0.57,0.17 -0.85,0.25c-2.09,0.61 -4.11,1.48 -6.03,2.62l-89.39,52.81c-2.69,1.59 -4.93,3.61 -6.73,5.94c-0.72,0.93 -1.36,1.91 -1.95,2.94c-0.29,0.5 -0.56,1.03 -0.82,1.56c-0.18,0.39 -0.31,0.81 -0.47,1.2z" id="svg_21"/>
    <path class="st1" d="m302.69,455.7c-0.33,0.01 -0.67,0.04 -1,0.04c-4.65,0.04 -9.32,-1.13 -13.51,-3.5l-94.96,-53.72c-1.39,-0.8 -2.66,-1.74 -3.76,-2.85c-1.11,-1.09 -2.08,-2.32 -2.85,-3.65c-1.18,-1.99 -1.96,-4.23 -2.3,-6.57c-0.11,-0.78 -0.18,-1.58 -0.18,-2.37l0,-109.24c-0.01,-1.17 0.03,-2.33 0.14,-3.47c0.29,-2.97 1.03,-5.82 2.14,-8.47l-25.65,-15.8l-30.01,-16.85c-2.81,5.91 -4.19,12.61 -4.12,19.57l0.01,162.97c0.08,9.56 5.25,18.34 13.56,23.03l141.67,80.15c6.24,3.53 13.2,5.27 20.15,5.22c0.25,0 0.5,-0.03 0.75,-0.03c-0.03,-20.78 -0.07,-35.59 -0.07,-35.59l-0.01,-28.88z" id="svg_22"/>
    <path class="st6" d="m302.69,455.7c-0.33,0.01 -0.67,0.04 -1,0.04c-4.65,0.04 -9.32,-1.13 -13.51,-3.5l-94.96,-53.72c-1.39,-0.8 -2.66,-1.74 -3.76,-2.85c-1.11,-1.09 -2.08,-2.32 -2.85,-3.65c-1.18,-1.99 -1.96,-4.23 -2.3,-6.57c-0.11,-0.78 -0.18,-1.58 -0.18,-2.37l0,-109.24c-0.01,-1.17 0.03,-2.33 0.14,-3.47c0.29,-2.97 1.03,-5.82 2.14,-8.47l-25.65,-15.8l-30.01,-16.85c-2.81,5.91 -4.19,12.61 -4.12,19.57l0.01,162.97c0.08,9.56 5.25,18.34 13.56,23.03l141.67,80.15c6.24,3.53 13.2,5.27 20.15,5.22c0.25,0 0.5,-0.03 0.75,-0.03c-0.03,-20.78 -0.07,-35.59 -0.07,-35.59l-0.01,-28.88z" id="svg_23"/>
    <path class="st2" d="m453.42,210.71l-134.82,-76.28c-12.55,-7.09 -27.92,-6.95 -40.33,0.39l-133.36,78.8c-6.42,3.81 -11.13,9.23 -14.16,15.58c0,0.01 0,0.03 -0.01,0.03l30.01,16.85l25.65,15.8c0.17,-0.39 0.29,-0.81 0.47,-1.2c0.26,-0.53 0.53,-1.06 0.82,-1.56c0.58,-1.03 1.23,-2.01 1.95,-2.94c1.8,-2.33 4.04,-4.35 6.73,-5.94l89.39,-52.81c1.92,-1.14 3.94,-2.01 6.03,-2.62c0.28,-0.08 0.57,-0.17 0.85,-0.25c1.55,-0.4 3.11,-0.67 4.68,-0.8c0.64,-0.06 1.28,-0.08 1.92,-0.1c0.58,0 1.17,0.01 1.75,0.04c2.33,0.13 4.65,0.56 6.89,1.3c1.69,0.54 3.33,1.27 4.9,2.16l90.38,51.13c3.02,1.72 5.75,3.96 8.02,6.57c0.77,0.88 1.46,1.8 2.12,2.75c0.28,0.43 0.56,0.86 0.82,1.31l23.05,-15.46l31.4,-18.78c-0.01,-0.03 -0.03,-0.06 -0.04,-0.07c-3.84,-5.69 -9.11,-10.5 -15.12,-13.91z" id="svg_24"/>
    <path class="st7" d="m453.42,210.71l-134.82,-76.28c-12.55,-7.09 -27.92,-6.95 -40.33,0.39l-133.36,78.8c-6.42,3.81 -11.13,9.23 -14.16,15.58c0,0.01 0,0.03 -0.01,0.03l30.01,16.85l25.65,15.8c0.17,-0.39 0.29,-0.81 0.47,-1.2c0.26,-0.53 0.53,-1.06 0.82,-1.56c0.58,-1.03 1.23,-2.01 1.95,-2.94c1.8,-2.33 4.04,-4.35 6.73,-5.94l89.39,-52.81c1.92,-1.14 3.94,-2.01 6.03,-2.62c0.28,-0.08 0.57,-0.17 0.85,-0.25c1.55,-0.4 3.11,-0.67 4.68,-0.8c0.64,-0.06 1.28,-0.08 1.92,-0.1c0.58,0 1.17,0.01 1.75,0.04c2.33,0.13 4.65,0.56 6.89,1.3c1.69,0.54 3.33,1.27 4.9,2.16l90.38,51.13c3.02,1.72 5.75,3.96 8.02,6.57c0.77,0.88 1.46,1.8 2.12,2.75c0.28,0.43 0.56,0.86 0.82,1.31l23.05,-15.46l31.4,-18.78c-0.01,-0.03 -0.03,-0.06 -0.04,-0.07c-3.84,-5.69 -9.11,-10.5 -15.12,-13.91z" id="svg_25"/>
    <path class="st4" d="m414.14,258.92c0.38,0.63 0.74,1.26 1.07,1.91c0.28,0.56 0.53,1.13 0.78,1.7c0.47,1.14 0.86,2.33 1.17,3.53c0.46,1.8 0.71,3.65 0.72,5.55l0,103.95c0.03,2.89 -0.4,5.72 -1.25,8.38c-0.08,0.28 -0.18,0.56 -0.28,0.84c-0.26,0.78 -0.58,1.56 -0.93,2.32c-0.32,0.7 -0.65,1.38 -1.03,2.05c-0.57,1.02 -1.21,1.99 -1.91,2.93c-1.06,1.41 -2.24,2.71 -3.57,3.89c-0.88,0.8 -1.81,1.53 -2.8,2.2c-0.49,0.35 -1,0.67 -1.52,0.98l-89.39,52.83c-3.87,2.29 -8.17,3.52 -12.52,3.71l0.01,28.88c0,0 0.04,14.8 0.07,35.59c6.73,-0.18 13.43,-2.01 19.41,-5.57l133.37,-78.82c12.39,-7.34 19.96,-20.74 19.83,-35.18l0,-155.09c-0.07,-7.49 -2.62,-14.66 -6.8,-20.81l-31.4,18.78l-23.05,15.46z" id="svg_26"/>
    <path class="st8" d="m414.14,258.92c0.38,0.63 0.74,1.26 1.07,1.91c0.28,0.56 0.53,1.13 0.78,1.7c0.47,1.14 0.86,2.33 1.17,3.53c0.46,1.8 0.71,3.65 0.72,5.55l0,103.95c0.03,2.89 -0.4,5.72 -1.25,8.38c-0.08,0.28 -0.18,0.56 -0.28,0.84c-0.26,0.78 -0.58,1.56 -0.93,2.32c-0.32,0.7 -0.65,1.38 -1.03,2.05c-0.57,1.02 -1.21,1.99 -1.91,2.93c-1.06,1.41 -2.24,2.71 -3.57,3.89c-0.88,0.8 -1.81,1.53 -2.8,2.2c-0.49,0.35 -1,0.67 -1.52,0.98l-89.39,52.83c-3.87,2.29 -8.17,3.52 -12.52,3.71l0.01,28.88c0,0 0.04,14.8 0.07,35.59c6.73,-0.18 13.43,-2.01 19.41,-5.57l133.37,-78.82c12.39,-7.34 19.96,-20.74 19.83,-35.18l0,-155.09c-0.07,-7.49 -2.62,-14.66 -6.8,-20.81l-31.4,18.78l-23.05,15.46z" id="svg_27"/>
    <path class="st5" d="m291.79,194.81c-2.09,0.61 -4.11,1.48 -6.03,2.62l-89.39,52.81l89.39,-52.81c1.92,-1.14 3.94,-2.01 6.03,-2.62z" id="svg_28"/>
    <path class="st9" d="m291.79,194.81c-2.09,0.61 -4.11,1.48 -6.03,2.62l-89.39,52.81l89.39,-52.81c1.92,-1.14 3.94,-2.01 6.03,-2.62z" id="svg_29"/>
    <path class="st5" d="m411.2,254.86c-2.27,-2.61 -5,-4.85 -8.02,-6.57l-90.38,-51.13l90.38,51.13c3.02,1.72 5.75,3.96 8.02,6.57z" id="svg_30"/>
    <path class="st9" d="m411.2,254.86c-2.27,-2.61 -5,-4.85 -8.02,-6.57l-90.38,-51.13l90.38,51.13c3.02,1.72 5.75,3.96 8.02,6.57z" id="svg_31"/>
    <path class="st5" d="m299.25,193.67c0.58,0 1.17,0.01 1.75,0.04c-0.58,-0.03 -1.17,-0.04 -1.75,-0.04z" id="svg_32"/>
    <path class="st9" d="m299.25,193.67c0.58,0 1.17,0.01 1.75,0.04c-0.58,-0.03 -1.17,-0.04 -1.75,-0.04z" id="svg_33"/>
    <path class="st5" d="m292.64,194.56c1.55,-0.4 3.11,-0.67 4.68,-0.8c-1.57,0.13 -3.13,0.39 -4.68,0.8z" id="svg_34"/>
    <path class="st9" d="m292.64,194.56c1.55,-0.4 3.11,-0.67 4.68,-0.8c-1.57,0.13 -3.13,0.39 -4.68,0.8z" id="svg_35"/>
    <path class="st5" d="m301,193.71c2.33,0.13 4.65,0.56 6.89,1.3c-2.24,-0.74 -4.57,-1.17 -6.89,-1.3z" id="svg_36"/>
    <path class="st9" d="m301,193.71c2.33,0.13 4.65,0.56 6.89,1.3c-2.24,-0.74 -4.57,-1.17 -6.89,-1.3z" id="svg_37"/>
    <path class="st5" d="m416.35,384.79c-0.26,0.78 -0.58,1.56 -0.93,2.32c0.35,-0.75 0.67,-1.53 0.93,-2.32z" id="svg_38"/>
    <path class="st9" d="m416.35,384.79c-0.26,0.78 -0.58,1.56 -0.93,2.32c0.35,-0.75 0.67,-1.53 0.93,-2.32z" id="svg_39"/>
    <path class="st5" d="m415.99,262.53c0.47,1.14 0.86,2.33 1.17,3.53c-0.31,-1.2 -0.7,-2.39 -1.17,-3.53z" id="svg_40"/>
    <path class="st9" d="m415.99,262.53c0.47,1.14 0.86,2.33 1.17,3.53c-0.31,-1.2 -0.7,-2.39 -1.17,-3.53z" id="svg_41"/>
    <path class="st5" d="m416.63,383.95c0.85,-2.66 1.28,-5.5 1.25,-8.38l0,-103.95l0,103.95c0.03,2.89 -0.4,5.72 -1.25,8.38z" id="svg_42"/>
    <path class="st9" d="m416.63,383.95c0.85,-2.66 1.28,-5.5 1.25,-8.38l0,-103.95l0,103.95c0.03,2.89 -0.4,5.72 -1.25,8.38z" id="svg_43"/>
   </g>
  </g>
 </g>
</svg>